<svg width="27" height="25" viewBox="0 0 27 25" fill="none" xmlns="http://www.w3.org/2000/svg">
<path d="M13.504 25C13.3623 25 13.2137 24.9516 13.0922 24.8548C0.231377 14.5326 0.0896038 10.0733 0.028844 8.17201C0.0220929 8.06139 0.0220929 7.9646 0.0153418 7.86781C-0.11968 5.86974 0.643193 3.76798 2.04067 2.23313C3.35713 0.795078 5.10566 0 6.97572 0C10.358 0 12.3631 1.99115 13.4973 3.40155C14.6382 1.99115 16.6433 0 20.0188 0C21.8889 0 23.6442 0.795078 24.9606 2.23313C26.3581 3.76798 27.1142 5.87666 26.986 7.86781C26.9792 7.95769 26.9792 8.06139 26.9725 8.17201C26.9117 10.0733 26.7699 14.5326 13.9091 24.8617C13.7943 24.9516 13.6458 25 13.504 25ZM6.98247 1.362C5.48373 1.362 4.0795 2.00498 3.01283 3.16648C1.85839 4.43169 1.23729 6.15321 1.34531 7.77793C1.35206 7.88164 1.35206 7.99917 1.35881 8.12362C1.41282 9.81748 1.54109 13.7652 13.504 23.4513C25.467 13.7583 25.5952 9.81748 25.6492 8.12362C25.656 7.99917 25.656 7.88164 25.6627 7.77793C25.7708 6.15321 25.1497 4.42478 23.9952 3.16648C22.9353 2.00498 21.5243 1.362 20.0256 1.362C16.9538 1.362 15.3201 3.19414 14.0306 4.90874C13.9023 5.07467 13.7133 5.17146 13.504 5.17146C13.2947 5.17146 13.1057 5.07467 12.9774 4.90874C11.688 3.19414 10.0475 1.362 6.98247 1.362Z" fill="black"/>
</svg>
